<svg height="512" viewBox="0 0 64 64" width="512" xmlns="http://www.w3.org/2000/svg"><g id="Paticipatation-2" data-name="Paticipatation"><path d="m42 16v16a1.955 1.955 0 0 1 -.59 1.41 3.084 3.084 0 0 1 -.27.24 2.046 2.046 0 0 1 -1.14.35 2.006 2.006 0 0 1 -2-2v4a.808.808 0 0 1 -.01.16 2.01 2.01 0 0 1 -1.99 1.84 2.315 2.315 0 0 1 -.46-.05 2.015 2.015 0 0 1 -1.54-1.95v3a1.791 1.791 0 0 1 -.09.57 1.987 1.987 0 0 1 -1.34 1.34 1.85 1.85 0 0 1 -1.14 0 2 2 0 0 1 -1.34-1.34 1.791 1.791 0 0 1 -.09-.57v-3a1.955 1.955 0 0 1 -.59 1.41 2.007 2.007 0 0 1 -.95.54 2.315 2.315 0 0 1 -.46.05 2 2 0 0 1 -1.99-1.84.808.808 0 0 1 -.01-.16v-9a1.775 1.775 0 0 1 -.1.61 1.8 1.8 0 0 1 -.45.75.176.176 0 0 1 -.04.05 1.975 1.975 0 0 1 -2.89-.08 1.927 1.927 0 0 1 -.52-1.33v-12l4-4v-2h13v2z" fill="#ffa733"/><rect fill="#ff9811" height="5.51" rx="1" width="2" x="37" y="25"/><rect fill="#ff9811" height="2.74" rx="1" width="2" x="33" y="25"/><rect fill="#ff9811" height="3.51" rx="1" width="2" x="29" y="25"/><path d="m37.29 35.46a1.948 1.948 0 0 1 -.58 1.32l-1.88 1.88-.92.91-1.34 1.34-.57.58-1.64 1.63a1.981 1.981 0 0 1 1.4-.56.661.661 0 0 1 .24.03 1.832 1.832 0 0 1 1.17.55 2 2 0 0 1 0 2.83l-1.17 1.17-1 1-6.31 6.32h-5.66l-1.41 1.41-9.2-9.19 1.42-1.42 1.41-5.65 11.27-11.28.04-.04a2.033 2.033 0 0 1 1.42-.59 1.993 1.993 0 0 1 1.41.59.435.435 0 0 1 .06.07 1.994 1.994 0 0 1 -.06 2.76l.61-.61 2.22-2.22a2 2 0 0 1 1.42-.59 1.472 1.472 0 0 1 .36.04 1.988 1.988 0 0 1 1.63 2.06 1.948 1.948 0 0 1 -.58 1.32l2.12-2.12a2.059 2.059 0 0 1 1.41-.58 2 2 0 0 1 1.42 3.41l-1.17 1.17-.83.83-.12.12a1.059 1.059 0 0 1 .12-.1 1.9 1.9 0 0 1 1.2-.48.34.34 0 0 1 .1-.01 2 2 0 0 1 1.99 2.1z" fill="#ffb655"/><path d="m56.99 45.26 4.24 4.25-11.31 11.31-4.24-4.24.7-.71 9.2-9.19z" fill="#3d9ae2"/><path d="m41 3v6h-2-13-1v-6z" fill="#3d9ae2"/><path d="m17.62 55.87.7.71-4.24 4.24-11.31-11.31 4.24-4.25 1.41 1.42z" fill="#3d9ae2"/><path d="m55.58 46.68-9.2 9.19-1.41-1.41h-5.66l-7.31-7.32-1.17-1.17a2 2 0 0 1 0-2.83 1.832 1.832 0 0 1 1.17-.55.661.661 0 0 1 .24-.03 1.981 1.981 0 0 1 1.4.56l-1.64-1.63-.57-.58-1.34-1.34-.92-.91-1.88-1.88a1.948 1.948 0 0 1 -.58-1.32 2 2 0 0 1 1.99-2.1.34.34 0 0 1 .1.01 1.9 1.9 0 0 1 1.2.48 1.059 1.059 0 0 1 .12.1l-.12-.12-.83-.83-1.17-1.17a2 2 0 0 1 1.42-3.41 2.059 2.059 0 0 1 1.41.58l2.12 2.12a1.948 1.948 0 0 1 -.58-1.32 1.988 1.988 0 0 1 1.63-2.06 1.472 1.472 0 0 1 .36-.04 2 2 0 0 1 1.42.59l2.22 2.22.61.61a2.005 2.005 0 0 1 1.41-3.42 2.033 2.033 0 0 1 1.42.59l.56.56 10.75 10.76 1.41 5.65z" fill="#ffc477"/><rect fill="#ffa733" height="2" rx="1" transform="matrix(.707 -.707 .707 .707 -17.044 26.043)" width="7" x="19.415" y="32.595"/><rect fill="#ffa733" height="2" rx="1" transform="matrix(.707 -.707 .707 .707 -18.971 28.56)" width="4.865" x="22.558" y="36.18"/><rect fill="#ffa733" height="2" rx="1" transform="matrix(.707 -.707 .707 .707 -20.328 31.314)" width="4.341" x="25.464" y="39.195"/><rect fill="#ffa733" height="2" rx="1" transform="matrix(.709 -.705 .705 .709 -22.878 33.395)" width="8.336" x="24.882" y="43.435"/><g fill="#ff9811"><path d="m11.235 35.149a21.031 21.031 0 0 1 7.115-19.108l1.3 1.52a18.987 18.987 0 0 0 -6.65 14.439 19.189 19.189 0 0 0 .212 2.851z"/><path d="m32 53c-.352 0-.7-.009-1.049-.025l.1-2c.63.031 1.272.031 1.9 0l.1 2c-.351.016-.699.025-1.051.025z"/><path d="m52.9 34.1-1.99-.2c.062-.625.094-1.265.094-1.9a18.987 18.987 0 0 0 -6.65-14.439l1.3-1.52a20.986 20.986 0 0 1 7.346 15.959c0 .7-.035 1.408-.1 2.1z"/><path d="m7.543 37.208a25.042 25.042 0 0 1 14.04-27.94l.834 1.817a23.039 23.039 0 0 0 -12.917 25.707z"/><path d="m32 57a25.2 25.2 0 0 1 -4.166-.346l.332-1.972a23.38 23.38 0 0 0 7.668 0l.332 1.972a25.2 25.2 0 0 1 -4.166.346z"/><path d="m56.457 37.208-1.957-.416a23.039 23.039 0 0 0 -11-24.715l1-1.732a25.044 25.044 0 0 1 11.957 26.863z"/></g><rect fill="#ffb655" height="7" rx="1" transform="matrix(.707 -.707 .707 .707 -11.724 38.886)" width="2" x="40.081" y="30.096"/><rect fill="#ffb655" height="11" rx="1" transform="matrix(.707 -.707 .707 .707 -13.966 36.303)" width="2" x="35.839" y="29.51"/><rect fill="#ffb655" height="11" rx="1" transform="matrix(.707 -.707 .707 .707 -16.795 35.132)" width="2" x="33.01" y="32.339"/><rect fill="#ffb655" height="6" rx="1" transform="matrix(.707 -.707 .707 .707 -21.527 38.556)" width="2" x="34.778" y="42.263"/><path d="m26 21a1 1 0 0 0 -1 1v4a1 1 0 0 0 2 0v-4a1 1 0 0 0 -1-1z" fill="#ff9811"/></g></svg>